STARTFONT 2.1
FONT -Monotype-Nimrod-Bold-R-Normal--14-100-100-100-P-81-iso8859-5
SIZE 10 100 100
FONTBOUNDINGBOX 17 17 -1 -3

STARTPROPERTIES 24
FOUNDRY "Monotype"
FAMILY_NAME "Nimrod"
WEIGHT_NAME "Bold"
SLANT "R"
SETWIDTH_NAME "Normal"
ADD_STYLE_NAME ""
PIXEL_SIZE 14
POINT_SIZE 100
RESOLUTION_X 100
RESOLUTION_Y 100
SPACING "P"
AVERAGE_WIDTH 81
CHARSET_REGISTRY "iso8859"
CHARSET_ENCODING "5"
FACE_NAME "Nimrod Bold ISO Latin Cyrillic"
_DEC_DEVICE_FONTNAMES "PS=nimrod-b-latcyrillic"
COPYRIGHT "Copyright (c) 1994 Monotype Typography Ltd."
CAP_HEIGHT 12
X_HEIGHT 9
WEIGHT 10
QUAD_WIDTH 10
DEFAULT_CHAR 160
FONT_DESCENT 3
FONT_ASCENT 14
ENDPROPERTIES

CHARS 191

STARTCHAR space
ENCODING 32
SWIDTH 250 0
DWIDTH 4 0
BBX 0 0 0 0
BITMAP
ENDCHAR

STARTCHAR exclam
ENCODING 33
SWIDTH 323 0
DWIDTH 5 0
BBX 2 11 2 0
BITMAP
C0
C0
C0
C0
C0
C0
C0
80
00
C0
C0
ENDCHAR

STARTCHAR quotedbl
ENCODING 34
SWIDTH 552 0
DWIDTH 8 0
BBX 5 5 2 6
BITMAP
D8
D8
D8
D8
48
ENDCHAR

STARTCHAR numbersign
ENCODING 35
SWIDTH 667 0
DWIDTH 9 0
BBX 9 11 0 0
BITMAP
1100
1100
1100
7F80
2200
2200
2200
FF00
4400
4400
4400
ENDCHAR

STARTCHAR dollar
ENCODING 36
SWIDTH 542 0
DWIDTH 8 0
BBX 7 13 1 -2
BITMAP
10
7C
D6
D2
D0
78
3C
16
96
D6
7C
10
10
ENDCHAR

STARTCHAR percent
ENCODING 37
SWIDTH 1000 0
DWIDTH 14 0
BBX 11 11 2 0
BITMAP
7080
D980
D900
DA00
DE00
75C0
0B60
1B60
1360
2360
61C0
ENDCHAR

STARTCHAR ampersand
ENCODING 38
SWIDTH 865 0
DWIDTH 12 0
BBX 11 11 1 0
BITMAP
1C00
3600
3600
3600
1C00
39C0
4C80
CC80
C720
E720
7DC0
ENDCHAR

STARTCHAR quoteright
ENCODING 39
SWIDTH 323 0
DWIDTH 5 0
BBX 3 4 1 7
BITMAP
C0
E0
20
C0
ENDCHAR

STARTCHAR parenleft
ENCODING 40
SWIDTH 385 0
DWIDTH 5 0
BBX 5 13 0 -2
BITMAP
18
30
60
60
C0
C0
C0
C0
C0
60
60
30
18
ENDCHAR

STARTCHAR parenright
ENCODING 41
SWIDTH 385 0
DWIDTH 5 0
BBX 5 13 0 -2
BITMAP
C0
60
30
30
18
18
18
18
18
30
30
60
C0
ENDCHAR

STARTCHAR asterisk
ENCODING 42
SWIDTH 552 0
DWIDTH 8 0
BBX 6 7 1 4
BITMAP
10
30
FC
78
30
78
CC
ENDCHAR

STARTCHAR plus
ENCODING 43
SWIDTH 667 0
DWIDTH 9 0
BBX 7 7 1 1
BITMAP
10
10
10
FE
10
10
10
ENDCHAR

STARTCHAR comma
ENCODING 44
SWIDTH 323 0
DWIDTH 5 0
BBX 3 4 1 -2
BITMAP
C0
E0
20
C0
ENDCHAR

STARTCHAR minus
ENCODING 45
SWIDTH 667 0
DWIDTH 9 0
BBX 7 1 1 4
BITMAP
FE
ENDCHAR

STARTCHAR period
ENCODING 46
SWIDTH 323 0
DWIDTH 5 0
BBX 2 2 2 0
BITMAP
C0
C0
ENDCHAR

STARTCHAR slash
ENCODING 47
SWIDTH 552 0
DWIDTH 8 0
BBX 7 11 1 0
BITMAP
06
04
0C
08
18
10
30
20
60
40
C0
ENDCHAR

STARTCHAR zero
ENCODING 48
SWIDTH 594 0
DWIDTH 8 0
BBX 7 11 1 0
BITMAP
38
6C
C6
C6
C6
C6
C6
C6
C6
6C
38
ENDCHAR

STARTCHAR one
ENCODING 49
SWIDTH 594 0
DWIDTH 8 0
BBX 4 11 2 0
BITMAP
20
E0
60
60
60
60
60
60
60
60
F0
ENDCHAR

STARTCHAR two
ENCODING 50
SWIDTH 594 0
DWIDTH 8 0
BBX 6 11 1 0
BITMAP
78
9C
CC
4C
0C
18
10
20
44
FC
F8
ENDCHAR

STARTCHAR three
ENCODING 51
SWIDTH 594 0
DWIDTH 8 0
BBX 7 11 1 0
BITMAP
7C
8E
C6
46
0C
38
0C
46
C6
8E
7C
ENDCHAR

STARTCHAR four
ENCODING 52
SWIDTH 594 0
DWIDTH 8 0
BBX 7 11 1 0
BITMAP
04
0C
1C
2C
2C
4C
8C
FE
0C
0C
1E
ENDCHAR

STARTCHAR five
ENCODING 53
SWIDTH 594 0
DWIDTH 8 0
BBX 7 11 0 0
BITMAP
7E
7C
40
40
7C
4E
06
06
86
CE
7C
ENDCHAR

STARTCHAR six
ENCODING 54
SWIDTH 594 0
DWIDTH 8 0
BBX 7 11 1 0
BITMAP
3C
66
C2
C0
DC
EE
C6
C6
C6
6E
3C
ENDCHAR

STARTCHAR seven
ENCODING 55
SWIDTH 594 0
DWIDTH 8 0
BBX 7 11 1 0
BITMAP
7E
FE
86
04
0C
08
18
18
30
30
30
ENDCHAR

STARTCHAR eight
ENCODING 56
SWIDTH 594 0
DWIDTH 8 0
BBX 7 11 1 0
BITMAP
7C
C6
C6
C6
6C
38
6C
C6
C6
C6
7C
ENDCHAR

STARTCHAR nine
ENCODING 57
SWIDTH 594 0
DWIDTH 8 0
BBX 7 11 1 0
BITMAP
78
EC
C6
C6
C6
EE
76
06
86
CC
78
ENDCHAR

STARTCHAR colon
ENCODING 58
SWIDTH 323 0
DWIDTH 5 0
BBX 2 8 2 0
BITMAP
C0
C0
00
00
00
00
C0
C0
ENDCHAR

STARTCHAR semicolon
ENCODING 59
SWIDTH 323 0
DWIDTH 5 0
BBX 3 10 2 -2
BITMAP
C0
C0
00
00
00
00
C0
E0
20
C0
ENDCHAR

STARTCHAR less
ENCODING 60
SWIDTH 667 0
DWIDTH 9 0
BBX 7 7 1 1
BITMAP
02
0C
30
C0
30
0C
02
ENDCHAR

STARTCHAR equal
ENCODING 61
SWIDTH 667 0
DWIDTH 9 0
BBX 7 3 1 3
BITMAP
FE
00
FE
ENDCHAR

STARTCHAR greater
ENCODING 62
SWIDTH 667 0
DWIDTH 9 0
BBX 7 7 1 1
BITMAP
80
60
18
06
18
60
80
ENDCHAR

STARTCHAR question
ENCODING 63
SWIDTH 500 0
DWIDTH 7 0
BBX 6 11 1 0
BITMAP
78
DC
8C
0C
18
10
20
20
00
30
30
ENDCHAR

STARTCHAR at
ENCODING 64
SWIDTH 927 0
DWIDTH 13 0
BBX 12 13 1 -2
BITMAP
0F00
30C0
4020
46A0
8D90
8D90
9990
9B20
9B60
4D80
4020
30C0
0F00
ENDCHAR

STARTCHAR A
ENCODING 65
SWIDTH 854 0
DWIDTH 12 0
BBX 12 11 0 0
BITMAP
0600
0600
0B00
0B00
1180
1180
20C0
3FC0
4060
4060
E0F0
ENDCHAR

STARTCHAR B
ENCODING 66
SWIDTH 792 0
DWIDTH 11 0
BBX 9 11 1 0
BITMAP
FF00
6380
6180
6180
6300
7E00
6300
6180
6180
6380
FF00
ENDCHAR

STARTCHAR C
ENCODING 67
SWIDTH 750 0
DWIDTH 11 0
BBX 9 11 1 0
BITMAP
1F00
7180
6080
C000
C000
C000
C000
C000
6080
7100
1E00
ENDCHAR

STARTCHAR D
ENCODING 68
SWIDTH 823 0
DWIDTH 12 0
BBX 10 11 1 0
BITMAP
FE00
6380
6180
60C0
60C0
60C0
60C0
60C0
6180
6380
FE00
ENDCHAR

STARTCHAR E
ENCODING 69
SWIDTH 750 0
DWIDTH 11 0
BBX 9 11 1 0
BITMAP
FF80
6180
6080
6480
6400
7C00
6400
6480
6080
6180
FF80
ENDCHAR

STARTCHAR F
ENCODING 70
SWIDTH 698 0
DWIDTH 10 0
BBX 9 11 1 0
BITMAP
FF80
6180
6080
6480
6400
7C00
6400
6400
6000
6000
F000
ENDCHAR

STARTCHAR G
ENCODING 71
SWIDTH 854 0
DWIDTH 12 0
BBX 10 11 1 0
BITMAP
1F00
7180
6080
C000
C000
C000
C3C0
C180
6180
7180
1F00
ENDCHAR

STARTCHAR H
ENCODING 72
SWIDTH 865 0
DWIDTH 12 0
BBX 10 11 1 0
BITMAP
F3C0
6180
6180
6180
6180
7F80
6180
6180
6180
6180
F3C0
ENDCHAR

STARTCHAR I
ENCODING 73
SWIDTH 448 0
DWIDTH 6 0
BBX 4 11 1 0
BITMAP
F0
60
60
60
60
60
60
60
60
60
F0
ENDCHAR

STARTCHAR J
ENCODING 74
SWIDTH 635 0
DWIDTH 9 0
BBX 7 11 1 0
BITMAP
1E
0C
0C
0C
0C
0C
0C
4C
CC
88
70
ENDCHAR

STARTCHAR K
ENCODING 75
SWIDTH 854 0
DWIDTH 12 0
BBX 10 11 1 0
BITMAP
F380
6100
6200
6400
6C00
7E00
6600
6300
6300
6180
F3C0
ENDCHAR

STARTCHAR L
ENCODING 76
SWIDTH 708 0
DWIDTH 10 0
BBX 8 11 1 0
BITMAP
F0
60
60
60
60
60
60
61
61
63
FF
ENDCHAR

STARTCHAR M
ENCODING 77
SWIDTH 1052 0
DWIDTH 15 0
BBX 13 11 1 0
BITMAP
F078
7070
58B0
58B0
58B0
4D30
4D30
4730
4630
4630
E278
ENDCHAR

STARTCHAR N
ENCODING 78
SWIDTH 833 0
DWIDTH 12 0
BBX 10 11 1 0
BITMAP
E1C0
7080
7080
5880
5880
4C80
4680
4680
4380
4380
E180
ENDCHAR

STARTCHAR O
ENCODING 79
SWIDTH 823 0
DWIDTH 12 0
BBX 10 11 1 0
BITMAP
1E00
7380
6180
C0C0
C0C0
C0C0
C0C0
C0C0
6180
7380
1E00
ENDCHAR

STARTCHAR P
ENCODING 80
SWIDTH 729 0
DWIDTH 10 0
BBX 9 11 1 0
BITMAP
FF00
6380
6180
6180
6380
7F00
6000
6000
6000
6000
F000
ENDCHAR

STARTCHAR Q
ENCODING 81
SWIDTH 823 0
DWIDTH 12 0
BBX 11 12 1 -1
BITMAP
1E00
7380
6180
C0C0
C0C0
C0C0
CCC0
D2C0
7380
7380
1F00
01E0
ENDCHAR

STARTCHAR R
ENCODING 82
SWIDTH 802 0
DWIDTH 11 0
BBX 10 11 1 0
BITMAP
FF00
6380
6180
6180
6380
7F00
6600
6300
6300
6180
F1C0
ENDCHAR

STARTCHAR S
ENCODING 83
SWIDTH 646 0
DWIDTH 9 0
BBX 7 11 1 0
BITMAP
7C
E6
C2
C2
F0
7C
1E
86
86
CE
7C
ENDCHAR

STARTCHAR T
ENCODING 84
SWIDTH 729 0
DWIDTH 10 0
BBX 10 11 0 0
BITMAP
7F80
CCC0
8C40
8C40
0C00
0C00
0C00
0C00
0C00
0C00
1E00
ENDCHAR

STARTCHAR U
ENCODING 85
SWIDTH 802 0
DWIDTH 11 0
BBX 10 11 1 0
BITMAP
F1C0
6080
6080
6080
6080
6080
6080
6080
6080
3100
1E00
ENDCHAR

STARTCHAR V
ENCODING 86
SWIDTH 823 0
DWIDTH 11 0
BBX 11 11 0 0
BITMAP
F0E0
6040
6040
3080
3080
1880
1900
0D00
0E00
0600
0400
ENDCHAR

STARTCHAR W
ENCODING 87
SWIDTH 1104 0
DWIDTH 15 0
BBX 15 11 0 0
BITMAP
FBCE
6184
6184
3188
3188
32C8
1AD0
1AD0
0C70
0C60
0420
ENDCHAR

STARTCHAR X
ENCODING 88
SWIDTH 802 0
DWIDTH 11 0
BBX 10 11 1 0
BITMAP
F3C0
6180
3100
3200
1C00
0C00
0C00
1600
2300
6180
F3C0
ENDCHAR

STARTCHAR Y
ENCODING 89
SWIDTH 792 0
DWIDTH 11 0
BBX 10 11 1 0
BITMAP
F3C0
6180
3100
3200
1A00
1C00
0C00
0C00
0C00
0C00
1E00
ENDCHAR

STARTCHAR Z
ENCODING 90
SWIDTH 667 0
DWIDTH 9 0
BBX 8 11 1 0
BITMAP
FF
C3
86
8C
0C
18
30
31
61
C3
FF
ENDCHAR

STARTCHAR bracketleft
ENCODING 91
SWIDTH 396 0
DWIDTH 6 0
BBX 4 13 1 -2
BITMAP
F0
C0
C0
C0
C0
C0
C0
C0
C0
C0
C0
C0
F0
ENDCHAR

STARTCHAR backslash
ENCODING 92
SWIDTH 552 0
DWIDTH 8 0
BBX 7 11 1 0
BITMAP
C0
40
60
20
30
10
18
08
0C
04
06
ENDCHAR

STARTCHAR bracketright
ENCODING 93
SWIDTH 396 0
DWIDTH 6 0
BBX 4 13 1 -2
BITMAP
F0
30
30
30
30
30
30
30
30
30
30
30
F0
ENDCHAR

STARTCHAR asciicircum
ENCODING 94
SWIDTH 583 0
DWIDTH 8 0
BBX 6 5 1 6
BITMAP
30
30
48
CC
84
ENDCHAR

STARTCHAR underscore
ENCODING 95
SWIDTH 500 0
DWIDTH 7 0
BBX 7 1 0 -3
BITMAP
FE
ENDCHAR

STARTCHAR quoteleft
ENCODING 96
SWIDTH 323 0
DWIDTH 5 0
BBX 3 4 1 7
BITMAP
60
80
E0
60
ENDCHAR

STARTCHAR a
ENCODING 97
SWIDTH 615 0
DWIDTH 9 0
BBX 8 8 1 0
BITMAP
7C
C6
86
1E
66
C6
CE
77
ENDCHAR

STARTCHAR b
ENCODING 98
SWIDTH 646 0
DWIDTH 9 0
BBX 8 11 0 0
BITMAP
E0
60
60
6C
76
63
63
63
63
76
6C
ENDCHAR

STARTCHAR c
ENCODING 99
SWIDTH 542 0
DWIDTH 8 0
BBX 6 8 1 0
BITMAP
38
6C
C4
C0
C0
C0
64
38
ENDCHAR

STARTCHAR d
ENCODING 100
SWIDTH 646 0
DWIDTH 9 0
BBX 8 11 1 0
BITMAP
0E
06
06
36
6E
C6
C6
C6
C6
6E
37
ENDCHAR

STARTCHAR e
ENCODING 101
SWIDTH 562 0
DWIDTH 8 0
BBX 6 8 1 0
BITMAP
38
4C
CC
FC
C0
C0
64
38
ENDCHAR

STARTCHAR f
ENCODING 102
SWIDTH 406 0
DWIDTH 6 0
BBX 7 11 1 0
BITMAP
3C
66
62
F0
60
60
60
60
60
60
F0
ENDCHAR

STARTCHAR g
ENCODING 103
SWIDTH 604 0
DWIDTH 8 0
BBX 8 10 0 -2
BITMAP
3D
66
66
66
3C
60
7E
FF
C3
7E
ENDCHAR

STARTCHAR h
ENCODING 104
SWIDTH 698 0
DWIDTH 10 0
BBX 9 11 1 0
BITMAP
E000
6000
6000
6E00
7300
6300
6300
6300
6300
6300
F780
ENDCHAR

STARTCHAR i
ENCODING 105
SWIDTH 385 0
DWIDTH 5 0
BBX 4 11 1 0
BITMAP
60
60
00
E0
60
60
60
60
60
60
F0
ENDCHAR

STARTCHAR j
ENCODING 106
SWIDTH 375 0
DWIDTH 5 0
BBX 5 13 -1 -2
BITMAP
18
18
00
38
18
18
18
18
18
18
18
D8
70
ENDCHAR

STARTCHAR k
ENCODING 107
SWIDTH 698 0
DWIDTH 10 0
BBX 9 11 1 0
BITMAP
E000
6000
6000
6700
6200
6400
6C00
7C00
6600
6300
F780
ENDCHAR

STARTCHAR l
ENCODING 108
SWIDTH 385 0
DWIDTH 5 0
BBX 4 11 1 0
BITMAP
E0
60
60
60
60
60
60
60
60
60
F0
ENDCHAR

STARTCHAR m
ENCODING 109
SWIDTH 1000 0
DWIDTH 14 0
BBX 14 8 0 0
BITMAP
EE70
7398
6318
6318
6318
6318
6318
F7BC
ENDCHAR

STARTCHAR n
ENCODING 110
SWIDTH 698 0
DWIDTH 10 0
BBX 9 8 1 0
BITMAP
EE00
7300
6300
6300
6300
6300
6300
F780
ENDCHAR

STARTCHAR o
ENCODING 111
SWIDTH 615 0
DWIDTH 9 0
BBX 7 8 1 0
BITMAP
38
6C
C6
C6
C6
C6
6C
38
ENDCHAR

STARTCHAR p
ENCODING 112
SWIDTH 646 0
DWIDTH 10 0
BBX 8 10 1 -2
BITMAP
EC
76
63
63
63
63
76
6C
60
F0
ENDCHAR

STARTCHAR q
ENCODING 113
SWIDTH 646 0
DWIDTH 9 0
BBX 8 10 1 -2
BITMAP
36
6E
C6
C6
C6
C6
6E
36
06
0F
ENDCHAR

STARTCHAR r
ENCODING 114
SWIDTH 542 0
DWIDTH 8 0
BBX 7 8 1 0
BITMAP
EC
76
60
60
60
60
60
F0
ENDCHAR

STARTCHAR s
ENCODING 115
SWIDTH 510 0
DWIDTH 8 0
BBX 6 8 1 0
BITMAP
78
CC
C0
F8
7C
0C
CC
78
ENDCHAR

STARTCHAR t
ENCODING 116
SWIDTH 427 0
DWIDTH 5 0
BBX 5 11 0 0
BITMAP
20
20
60
F8
60
60
60
60
60
68
30
ENDCHAR

STARTCHAR u
ENCODING 117
SWIDTH 698 0
DWIDTH 10 0
BBX 9 8 1 0
BITMAP
E700
6300
6300
6300
6300
6300
6700
3B80
ENDCHAR

STARTCHAR v
ENCODING 118
SWIDTH 635 0
DWIDTH 9 0
BBX 9 8 0 0
BITMAP
F380
6100
6100
3200
3200
1C00
1C00
0800
ENDCHAR

STARTCHAR w
ENCODING 119
SWIDTH 906 0
DWIDTH 12 0
BBX 12 8 0 0
BITMAP
F770
6220
6720
3740
3540
39C0
1980
1080
ENDCHAR

STARTCHAR x
ENCODING 120
SWIDTH 646 0
DWIDTH 8 0
BBX 8 8 0 0
BITMAP
F7
62
34
18
18
2C
46
EF
ENDCHAR

STARTCHAR y
ENCODING 121
SWIDTH 635 0
DWIDTH 9 0
BBX 9 10 0 -2
BITMAP
F380
6100
6100
3200
3200
1C00
1C00
0800
D000
6000
ENDCHAR

STARTCHAR z
ENCODING 122
SWIDTH 521 0
DWIDTH 8 0
BBX 6 8 1 0
BITMAP
FC
CC
98
30
30
64
CC
FC
ENDCHAR

STARTCHAR braceleft
ENCODING 123
SWIDTH 396 0
DWIDTH 6 0
BBX 4 13 1 -2
BITMAP
30
60
60
60
60
C0
C0
60
60
60
60
60
30
ENDCHAR

STARTCHAR bar
ENCODING 124
SWIDTH 542 0
DWIDTH 8 0
BBX 2 11 3 0
BITMAP
C0
C0
C0
C0
C0
C0
C0
C0
C0
C0
C0
ENDCHAR

STARTCHAR braceright
ENCODING 125
SWIDTH 396 0
DWIDTH 6 0
BBX 4 13 1 -2
BITMAP
C0
60
60
60
60
60
30
30
60
60
60
60
C0
ENDCHAR

STARTCHAR asciitilde
ENCODING 126
SWIDTH 667 0
DWIDTH 9 0
BBX 7 2 1 4
BITMAP
7A
BC
ENDCHAR

STARTCHAR space
ENCODING 160
SWIDTH 250 0
DWIDTH 4 0
BBX 0 0 0 0
BITMAP
ENDCHAR

STARTCHAR afii10023
ENCODING 161
SWIDTH 719 0
DWIDTH 11 0
BBX 9 14 1 0
BITMAP
3300
3300
0000
FF80
6180
6080
6480
6400
7C00
6400
6480
6080
6180
FF80
ENDCHAR

STARTCHAR afii10051
ENCODING 162
SWIDTH 927 0
DWIDTH 13 0
BBX 13 11 0 0
BITMAP
7F80
CCC0
8C40
0C00
0DE0
0E30
0C18
0C18
0C18
0C30
1EE0
ENDCHAR

STARTCHAR afii10052
ENCODING 163
SWIDTH 687 0
DWIDTH 9 0
BBX 8 14 1 0
BITMAP
0C
18
00
FF
63
61
61
60
60
60
60
60
60
F0
ENDCHAR

STARTCHAR afii10053
ENCODING 164
SWIDTH 750 0
DWIDTH 11 0
BBX 9 11 1 0
BITMAP
1F00
7180
6080
C000
C000
FC00
C000
C080
6080
7100
1E00
ENDCHAR

STARTCHAR afii10054
ENCODING 165
SWIDTH 646 0
DWIDTH 9 0
BBX 7 11 1 0
BITMAP
7C
E6
C2
C2
F0
7C
1E
86
86
CE
7C
ENDCHAR

STARTCHAR afii10055
ENCODING 166
SWIDTH 448 0
DWIDTH 6 0
BBX 4 11 1 0
BITMAP
F0
60
60
60
60
60
60
60
60
60
F0
ENDCHAR

STARTCHAR afii10056
ENCODING 167
SWIDTH 448 0
DWIDTH 6 0
BBX 6 14 0 0
BITMAP
CC
CC
00
78
30
30
30
30
30
30
30
30
30
78
ENDCHAR

STARTCHAR afii10057
ENCODING 168
SWIDTH 635 0
DWIDTH 9 0
BBX 7 11 1 0
BITMAP
1E
0C
0C
0C
0C
0C
0C
4C
CC
88
70
ENDCHAR

STARTCHAR afii10058
ENCODING 169
SWIDTH 1164 0
DWIDTH 17 0
BBX 16 11 0 0
BITMAP
1FE0
08C0
08C0
08C0
08C0
08FC
08C6
48C3
C8C3
88C7
71FE
ENDCHAR

STARTCHAR afii10059
ENCODING 170
SWIDTH 1171 0
DWIDTH 17 0
BBX 15 11 1 0
BITMAP
F3C0
6180
6180
6180
6180
7FF8
618C
6186
6186
618E
F3FC
ENDCHAR

STARTCHAR afii10060
ENCODING 171
SWIDTH 946 0
DWIDTH 13 0
BBX 13 11 0 0
BITMAP
7F80
CCC0
8C40
0C00
0DE0
0E30
0C30
0C30
0C30
0C30
1E78
ENDCHAR

STARTCHAR afii10061
ENCODING 172
SWIDTH 831 0
DWIDTH 12 0
BBX 10 14 1 0
BITMAP
0600
0C00
0000
F180
62C0
6200
6400
6C00
7C00
6600
6300
6300
6180
F1C0
ENDCHAR

STARTCHAR hyphen
ENCODING 173
SWIDTH 323 0
DWIDTH 5 0
BBX 3 1 1 3
BITMAP
E0
ENDCHAR

STARTCHAR afii10062
ENCODING 174
SWIDTH 748 0
DWIDTH 10 0
BBX 10 14 0 0
BITMAP
3300
1E00
0000
F1C0
6080
6080
3100
3100
1A00
1A00
0C00
4C00
6800
3000
ENDCHAR

STARTCHAR afii10145
ENCODING 175
SWIDTH 865 0
DWIDTH 12 0
BBX 10 13 1 -2
BITMAP
F3C0
6180
6180
6180
6180
6180
6180
6180
6180
6180
FFC0
0C00
0C00
ENDCHAR

STARTCHAR afii10017
ENCODING 176
SWIDTH 854 0
DWIDTH 12 0
BBX 12 11 0 0
BITMAP
0600
0600
0B00
0B00
1180
1180
20C0
3FC0
4060
4060
E0F0
ENDCHAR

STARTCHAR afii10018
ENCODING 177
SWIDTH 792 0
DWIDTH 11 0
BBX 9 11 1 0
BITMAP
FF80
6180
6080
6080
6000
7E00
6300
6180
6180
6380
FF00
ENDCHAR

STARTCHAR afii10019
ENCODING 178
SWIDTH 792 0
DWIDTH 11 0
BBX 9 11 1 0
BITMAP
FF00
6380
6180
6180
6300
7E00
6300
6180
6180
6380
FF00
ENDCHAR

STARTCHAR afii10020
ENCODING 179
SWIDTH 687 0
DWIDTH 9 0
BBX 8 11 1 0
BITMAP
FF
63
61
61
60
60
60
60
60
60
F0
ENDCHAR

STARTCHAR afii10021
ENCODING 180
SWIDTH 813 0
DWIDTH 11 0
BBX 10 13 0 -2
BITMAP
3FC0
1180
1180
1180
1180
1180
1180
2180
2180
4180
FFC0
C0C0
8040
ENDCHAR

STARTCHAR afii10022
ENCODING 181
SWIDTH 719 0
DWIDTH 11 0
BBX 9 11 1 0
BITMAP
FF80
6180
6080
6480
6400
7C00
6400
6480
6080
6180
FF80
ENDCHAR

STARTCHAR afii10024
ENCODING 182
SWIDTH 1189 0
DWIDTH 16 0
BBX 16 11 0 0
BITMAP
73CE
D99B
1998
1998
0DB0
1FF8
1998
318C
318C
6186
E3C7
ENDCHAR

STARTCHAR afii10025
ENCODING 183
SWIDTH 689 0
DWIDTH 10 0
BBX 8 11 1 0
BITMAP
FE
C7
83
83
06
1E
07
03
83
C7
7E
ENDCHAR

STARTCHAR afii10026
ENCODING 184
SWIDTH 880 0
DWIDTH 12 0
BBX 10 11 1 0
BITMAP
F3C0
6180
6180
6380
6580
6980
7180
6180
6180
6180
F3C0
ENDCHAR

STARTCHAR afii10027
ENCODING 185
SWIDTH 880 0
DWIDTH 12 0
BBX 10 14 1 0
BITMAP
3300
1E00
0000
F3C0
6180
6180
6380
6580
6980
7180
6180
6180
6180
F3C0
ENDCHAR

STARTCHAR afii10028
ENCODING 186
SWIDTH 831 0
DWIDTH 12 0
BBX 10 11 1 0
BITMAP
F180
62C0
6200
6400
6C00
7C00
6600
6300
6300
6180
F1C0
ENDCHAR

STARTCHAR afii10029
ENCODING 187
SWIDTH 844 0
DWIDTH 12 0
BBX 11 11 0 0
BITMAP
1FE0
08C0
08C0
08C0
08C0
08C0
08C0
48C0
C8C0
88C0
71E0
ENDCHAR

STARTCHAR afii10030
ENCODING 188
SWIDTH 1052 0
DWIDTH 15 0
BBX 13 11 1 0
BITMAP
F078
7070
58B0
58B0
58B0
4D30
4D30
4730
4630
4630
E278
ENDCHAR

STARTCHAR afii10031
ENCODING 189
SWIDTH 865 0
DWIDTH 12 0
BBX 10 11 1 0
BITMAP
F3C0
6180
6180
6180
6180
7F80
6180
6180
6180
6180
F3C0
ENDCHAR

STARTCHAR afii10032
ENCODING 190
SWIDTH 823 0
DWIDTH 12 0
BBX 10 11 1 0
BITMAP
1E00
7380
6180
C0C0
C0C0
C0C0
C0C0
C0C0
6180
7380
1E00
ENDCHAR

STARTCHAR afii10033
ENCODING 191
SWIDTH 865 0
DWIDTH 12 0
BBX 10 11 1 0
BITMAP
FFC0
6180
6180
6180
6180
6180
6180
6180
6180
6180
F3C0
ENDCHAR

STARTCHAR afii10034
ENCODING 192
SWIDTH 729 0
DWIDTH 10 0
BBX 9 11 1 0
BITMAP
FF00
6380
6180
6180
6380
7F00
6000
6000
6000
6000
F000
ENDCHAR

STARTCHAR afii10035
ENCODING 193
SWIDTH 750 0
DWIDTH 11 0
BBX 9 11 1 0
BITMAP
1F00
7180
6080
C000
C000
C000
C000
C000
6080
7100
1E00
ENDCHAR

STARTCHAR afii10036
ENCODING 194
SWIDTH 729 0
DWIDTH 10 0
BBX 10 11 0 0
BITMAP
7F80
CCC0
8C40
8C40
0C00
0C00
0C00
0C00
0C00
0C00
1E00
ENDCHAR

STARTCHAR afii10037
ENCODING 195
SWIDTH 748 0
DWIDTH 10 0
BBX 10 11 0 0
BITMAP
F1C0
6080
6080
3100
3100
1A00
1A00
0C00
4C00
6800
3000
ENDCHAR

STARTCHAR afii10038
ENCODING 196
SWIDTH 934 0
DWIDTH 12 0
BBX 12 11 0 0
BITMAP
0F00
0600
3FC0
6660
C630
C630
C630
6660
3FC0
0600
0F00
ENDCHAR

STARTCHAR afii10039
ENCODING 197
SWIDTH 802 0
DWIDTH 11 0
BBX 10 11 1 0
BITMAP
F3C0
6180
3100
3200
1C00
0C00
0C00
1600
2300
6180
F3C0
ENDCHAR

STARTCHAR afii10040
ENCODING 198
SWIDTH 882 0
DWIDTH 12 0
BBX 10 13 1 -2
BITMAP
F3C0
6180
6180
6180
6180
6180
6180
6180
6180
6180
FFC0
00C0
0040
ENDCHAR

STARTCHAR afii10041
ENCODING 199
SWIDTH 817 0
DWIDTH 12 0
BBX 10 11 1 0
BITMAP
F3C0
6180
6180
6180
6180
7380
3D80
0180
0180
0180
03C0
ENDCHAR

STARTCHAR afii10042
ENCODING 200
SWIDTH 1133 0
DWIDTH 16 0
BBX 14 11 1 0
BITMAP
F7BC
6318
6318
6318
6318
6318
6318
6318
6318
6318
FFFC
ENDCHAR

STARTCHAR afii10043
ENCODING 201
SWIDTH 1153 0
DWIDTH 16 0
BBX 14 13 1 -2
BITMAP
F7BC
6318
6318
6318
6318
6318
6318
6318
6318
6318
FFFC
000C
0004
ENDCHAR

STARTCHAR afii10044
ENCODING 202
SWIDTH 937 0
DWIDTH 13 0
BBX 12 11 0 0
BITMAP
FE00
CC00
8C00
8C00
0C00
0FC0
0C60
0C30
0C30
0C70
1FE0
ENDCHAR

STARTCHAR afii10045
ENCODING 203
SWIDTH 1177 0
DWIDTH 16 0
BBX 14 11 1 0
BITMAP
F03C
6018
6018
6018
6018
7E18
6318
6198
6198
6398
FF3C
ENDCHAR

STARTCHAR afii10046
ENCODING 204
SWIDTH 781 0
DWIDTH 11 0
BBX 9 11 1 0
BITMAP
F000
6000
6000
6000
6000
7E00
6300
6180
6180
6380
FF00
ENDCHAR

STARTCHAR afii10047
ENCODING 205
SWIDTH 750 0
DWIDTH 11 0
BBX 9 11 1 0
BITMAP
7C00
C700
8300
0180
0180
1F80
0180
8180
8300
4700
3C00
ENDCHAR

STARTCHAR afii10048
ENCODING 206
SWIDTH 1219 0
DWIDTH 17 0
BBX 15 11 1 0
BITMAP
F0F0
639C
630C
6606
6606
7E06
6606
6606
630C
639C
F0F0
ENDCHAR

STARTCHAR afii10049
ENCODING 207
SWIDTH 802 0
DWIDTH 11 0
BBX 10 11 1 0
BITMAP
3FC0
7180
6180
6180
7180
3F80
1980
3180
3180
6180
E3C0
ENDCHAR

STARTCHAR afii10065
ENCODING 208
SWIDTH 615 0
DWIDTH 9 0
BBX 8 8 1 0
BITMAP
7C
C6
86
1E
66
C6
CE
77
ENDCHAR

STARTCHAR afii10066
ENCODING 209
SWIDTH 615 0
DWIDTH 10 0
BBX 7 11 2 0
BITMAP
06
7C
C0
D8
EC
C6
C6
C6
C6
6C
38
ENDCHAR

STARTCHAR afii10067
ENCODING 210
SWIDTH 646 0
DWIDTH 10 0
BBX 8 8 1 0
BITMAP
FE
63
63
7E
63
63
63
FE
ENDCHAR

STARTCHAR afii10068
ENCODING 211
SWIDTH 577 0
DWIDTH 8 0
BBX 7 8 1 0
BITMAP
FE
66
62
60
60
60
60
F0
ENDCHAR

STARTCHAR afii10069
ENCODING 212
SWIDTH 662 0
DWIDTH 9 0
BBX 9 10 0 -2
BITMAP
7F80
2300
2300
2300
2300
4300
4300
FF80
C180
8080
ENDCHAR

STARTCHAR afii10070
ENCODING 213
SWIDTH 562 0
DWIDTH 8 0
BBX 6 8 1 0
BITMAP
38
4C
CC
FC
C0
C0
64
38
ENDCHAR

STARTCHAR afii10072
ENCODING 214
SWIDTH 936 0
DWIDTH 12 0
BBX 12 8 0 0
BITMAP
CF30
A650
2640
1F80
36C0
6660
6660
CF30
ENDCHAR

STARTCHAR afii10073
ENCODING 215
SWIDTH 531 0
DWIDTH 8 0
BBX 6 8 1 0
BITMAP
F8
CC
8C
38
18
8C
CC
78
ENDCHAR

STARTCHAR afii10074
ENCODING 216
SWIDTH 708 0
DWIDTH 10 0
BBX 9 8 1 0
BITMAP
F780
6300
6700
6B00
7300
6300
6300
F780
ENDCHAR

STARTCHAR afii10075
ENCODING 217
SWIDTH 708 0
DWIDTH 10 0
BBX 9 11 1 0
BITMAP
3300
1E00
0000
F780
6300
6700
6B00
7300
6300
6300
F780
ENDCHAR

STARTCHAR afii10076
ENCODING 218
SWIDTH 677 0
DWIDTH 10 0
BBX 8 8 1 0
BITMAP
F3
65
64
78
6C
66
66
F3
ENDCHAR

STARTCHAR afii10077
ENCODING 219
SWIDTH 698 0
DWIDTH 10 0
BBX 10 8 0 0
BITMAP
3FC0
1180
1180
1180
1180
1180
D180
63C0
ENDCHAR

STARTCHAR afii10078
ENCODING 220
SWIDTH 854 0
DWIDTH 12 0
BBX 11 8 1 0
BITMAP
F1E0
71C0
5AC0
5AC0
5AC0
5CC0
4CC0
E9E0
ENDCHAR

STARTCHAR afii10079
ENCODING 221
SWIDTH 713 0
DWIDTH 10 0
BBX 9 8 1 0
BITMAP
F780
6300
6300
7F00
6300
6300
6300
F780
ENDCHAR

STARTCHAR afii10080
ENCODING 222
SWIDTH 614 0
DWIDTH 9 0
BBX 7 8 1 0
BITMAP
38
6C
C6
C6
C6
C6
6C
38
ENDCHAR

STARTCHAR afii10081
ENCODING 223
SWIDTH 708 0
DWIDTH 10 0
BBX 9 8 1 0
BITMAP
FF80
6300
6300
6300
6300
6300
6300
E380
ENDCHAR

STARTCHAR afii10082
ENCODING 224
SWIDTH 656 0
DWIDTH 10 0
BBX 8 10 1 -2
BITMAP
EC
76
63
63
63
63
76
6C
60
F0
ENDCHAR

STARTCHAR afii10083
ENCODING 225
SWIDTH 542 0
DWIDTH 8 0
BBX 6 8 1 0
BITMAP
38
6C
C4
C0
C0
C0
64
38
ENDCHAR

STARTCHAR afii10084
ENCODING 226
SWIDTH 598 0
DWIDTH 8 0
BBX 8 8 0 0
BITMAP
7E
DB
99
18
18
18
18
3C
ENDCHAR

STARTCHAR afii10085
ENCODING 227
SWIDTH 594 0
DWIDTH 9 0
BBX 9 10 0 -2
BITMAP
F380
6100
6100
3200
3200
1C00
1C00
0800
D000
6000
ENDCHAR

STARTCHAR afii10086
ENCODING 228
SWIDTH 823 0
DWIDTH 12 0
BBX 10 13 1 -2
BITMAP
0400
1C00
0C00
6D80
DEC0
CCC0
CCC0
CCC0
CCC0
DEC0
6D80
0C00
1E00
ENDCHAR

STARTCHAR afii10087
ENCODING 229
SWIDTH 646 0
DWIDTH 8 0
BBX 8 8 0 0
BITMAP
F7
62
34
18
18
2C
46
EF
ENDCHAR

STARTCHAR afii10088
ENCODING 230
SWIDTH 711 0
DWIDTH 10 0
BBX 9 10 1 -2
BITMAP
F780
6300
6300
6300
6300
6300
6300
FF80
0180
0080
ENDCHAR

STARTCHAR afii10089
ENCODING 231
SWIDTH 698 0
DWIDTH 9 0
BBX 9 8 0 0
BITMAP
F780
6300
6300
6700
3B00
0300
0300
0780
ENDCHAR

STARTCHAR afii10090
ENCODING 232
SWIDTH 1047 0
DWIDTH 15 0
BBX 14 8 1 0
BITMAP
F7BC
6318
6318
6318
6318
6318
6318
FFFC
ENDCHAR

STARTCHAR afii10091
ENCODING 233
SWIDTH 1055 0
DWIDTH 15 0
BBX 14 10 1 -2
BITMAP
F7BC
6318
6318
6318
6318
6318
6318
FFFC
000C
0004
ENDCHAR

STARTCHAR afii10092
ENCODING 234
SWIDTH 740 0
DWIDTH 11 0
BBX 10 8 0 0
BITMAP
FC00
D800
9800
1F80
18C0
18C0
18C0
3F80
ENDCHAR

STARTCHAR afii10093
ENCODING 235
SWIDTH 948 0
DWIDTH 13 0
BBX 12 8 1 0
BITMAP
F0F0
6060
6060
7E60
6360
6360
6360
FEF0
ENDCHAR

STARTCHAR afii10094
ENCODING 236
SWIDTH 635 0
DWIDTH 10 0
BBX 8 8 1 0
BITMAP
F0
60
60
7E
63
63
63
FE
ENDCHAR

STARTCHAR afii10095
ENCODING 237
SWIDTH 567 0
DWIDTH 8 0
BBX 6 8 1 0
BITMAP
70
98
0C
3C
0C
8C
D8
70
ENDCHAR

STARTCHAR afii10096
ENCODING 238
SWIDTH 935 0
DWIDTH 14 0
BBX 12 8 1 0
BITMAP
F1C0
6360
6630
7E30
6630
6630
6360
F1C0
ENDCHAR

STARTCHAR afii10097
ENCODING 239
SWIDTH 669 0
DWIDTH 9 0
BBX 9 8 0 0
BITMAP
3F80
6300
6300
6300
3F00
3300
6300
E780
ENDCHAR

STARTCHAR afii61352
ENCODING 240
SWIDTH 1115 0
DWIDTH 17 0
BBX 16 11 0 0
BITMAP
3838
1C58
1C40
164E
165B
165B
135B
135B
11CE
D1C0
E0CE
ENDCHAR

STARTCHAR afii10071
ENCODING 241
SWIDTH 562 0
DWIDTH 8 0
BBX 6 11 1 0
BITMAP
CC
CC
00
38
4C
CC
FC
C0
C0
64
38
ENDCHAR

STARTCHAR afii10099
ENCODING 242
SWIDTH 646 0
DWIDTH 10 0
BBX 8 13 1 -2
BITMAP
60
FE
60
6E
73
63
63
63
63
63
F3
03
06
ENDCHAR

STARTCHAR afii10100
ENCODING 243
SWIDTH 581 0
DWIDTH 8 0
BBX 7 11 1 0
BITMAP
18
30
00
FE
66
62
60
60
60
60
F0
ENDCHAR

STARTCHAR afii10101
ENCODING 244
SWIDTH 552 0
DWIDTH 8 0
BBX 6 8 1 0
BITMAP
38
64
C0
F0
C0
C4
6C
38
ENDCHAR

STARTCHAR afii10102
ENCODING 245
SWIDTH 500 0
DWIDTH 8 0
BBX 6 8 1 0
BITMAP
78
CC
C0
F8
7C
0C
CC
78
ENDCHAR

STARTCHAR afii10103
ENCODING 246
SWIDTH 396 0
DWIDTH 5 0
BBX 4 11 1 0
BITMAP
60
60
00
E0
60
60
60
60
60
60
F0
ENDCHAR

STARTCHAR afii10104
ENCODING 247
SWIDTH 396 0
DWIDTH 5 0
BBX 6 11 0 0
BITMAP
CC
CC
00
70
30
30
30
30
30
30
78
ENDCHAR

STARTCHAR afii10105
ENCODING 248
SWIDTH 375 0
DWIDTH 5 0
BBX 5 13 -1 -2
BITMAP
18
18
00
38
18
18
18
18
18
18
18
D8
70
ENDCHAR

STARTCHAR afii10106
ENCODING 249
SWIDTH 967 0
DWIDTH 15 0
BBX 14 8 0 0
BITMAP
3FC0
1180
1180
11F8
118C
118C
D18C
63F8
ENDCHAR

STARTCHAR afii10107
ENCODING 250
SWIDTH 969 0
DWIDTH 15 0
BBX 13 8 1 0
BITMAP
F780
6300
6300
7FF0
6318
6318
6318
F7F0
ENDCHAR

STARTCHAR afii10108
ENCODING 251
SWIDTH 708 0
DWIDTH 10 0
BBX 9 11 1 0
BITMAP
6000
FE00
6000
6E00
7300
6300
6300
6300
6300
6300
F780
ENDCHAR

STARTCHAR afii10109
ENCODING 252
SWIDTH 677 0
DWIDTH 10 0
BBX 8 11 1 0
BITMAP
0C
18
00
F3
65
64
78
6C
66
66
F3
ENDCHAR

STARTCHAR section
ENCODING 253
SWIDTH 531 0
DWIDTH 8 0
BBX 6 13 1 -2
BITMAP
38
6C
44
60
F0
98
CC
64
3C
18
88
D8
70
ENDCHAR

STARTCHAR afii10110
ENCODING 254
SWIDTH 594 0
DWIDTH 9 0
BBX 9 13 0 -2
BITMAP
3300
1E00
0000
F380
6100
6100
3200
3200
1C00
1C00
0800
D000
6000
ENDCHAR

STARTCHAR afii10193
ENCODING 255
SWIDTH 708 0
DWIDTH 10 0
BBX 9 10 1 -2
BITMAP
E380
6300
6300
6300
6300
6300
6300
FF80
1800
1800
ENDCHAR
ENDFONT
